<svg width="1014" height="443" viewBox="0 0 1014 443" fill="none" xmlns="http://www.w3.org/2000/svg">
<path d="M284.23 276.711V325.369H242.522V386H192.319V325.369H19.3091V276.711L188.457 77.0545H242.522V276.711H284.23ZM77.2364 276.711H192.319V137.685L77.2364 276.711Z" fill="black"/>
<path d="M284.23 276.711V325.369H242.522V386H192.319V325.369H19.3091V276.711L188.457 77.0545H242.522V276.711H284.23ZM77.2364 276.711H192.319V137.685L77.2364 276.711Z" fill="white"/>
<path d="M944.23 276.711V325.369H902.522V386H852.319V325.369H679.309V276.711L848.457 77.0545H902.522V276.711H944.23ZM737.236 276.711H852.319V137.685L737.236 276.711Z" fill="black"/>
<path d="M944.23 276.711V325.369H902.522V386H852.319V325.369H679.309V276.711L848.457 77.0545H902.522V276.711H944.23ZM737.236 276.711H852.319V137.685L737.236 276.711Z" fill="white"/>
<path fill-rule="evenodd" clip-rule="evenodd" d="M485.785 31C485.785 135.815 400.815 220.785 296 220.785C400.815 220.785 485.785 305.754 485.785 410.569C485.785 305.754 570.754 220.785 675.569 220.785C570.754 220.785 485.785 135.815 485.785 31Z" fill="white"/>
</svg>
