<svg width="445" height="444" viewBox="0 0 445 444" fill="none" xmlns="http://www.w3.org/2000/svg">
<path fill-rule="evenodd" clip-rule="evenodd" d="M222.203 0C222.203 24.8243 202.078 44.9484 177.254 44.9484C202.078 44.9484 222.203 65.0725 222.203 89.8969C222.203 65.0725 242.327 44.9484 267.151 44.9484C242.327 44.9484 222.203 24.8243 222.203 0Z" fill="black"/>
<path fill-rule="evenodd" clip-rule="evenodd" d="M310.831 88.627C310.831 113.451 290.707 133.575 265.883 133.575C290.707 133.575 310.831 153.699 310.831 178.524C310.831 153.699 330.955 133.575 355.779 133.575C330.955 133.575 310.831 113.451 310.831 88.627Z" fill="black"/>
<path fill-rule="evenodd" clip-rule="evenodd" d="M399.457 177.255C399.457 202.079 379.333 222.203 354.508 222.203C379.333 222.203 399.457 242.327 399.457 267.152C399.457 242.327 419.581 222.203 444.405 222.203C419.581 222.203 399.457 202.079 399.457 177.255Z" fill="black"/>
<path fill-rule="evenodd" clip-rule="evenodd" d="M133.574 88.6279C133.574 113.452 113.45 133.576 88.626 133.576C113.45 133.576 133.574 153.7 133.574 178.525C133.574 153.7 153.699 133.576 178.523 133.576C153.699 133.576 133.574 113.452 133.574 88.6279Z" fill="black"/>
<path fill-rule="evenodd" clip-rule="evenodd" d="M222.203 177.255C222.203 202.079 202.078 222.203 177.254 222.203C202.078 222.203 222.203 242.327 222.203 267.152C222.203 242.327 242.327 222.203 267.151 222.203C242.327 222.203 222.203 202.079 222.203 177.255Z" fill="black"/>
<path fill-rule="evenodd" clip-rule="evenodd" d="M222.203 353.41C222.203 378.234 202.078 398.358 177.254 398.358C202.078 398.358 222.203 418.482 222.203 443.307C222.203 418.482 242.327 398.358 267.151 398.358C242.327 398.358 222.203 378.234 222.203 353.41Z" fill="black"/>
<path fill-rule="evenodd" clip-rule="evenodd" d="M310.831 265.883C310.831 290.707 290.707 310.831 265.883 310.831C290.707 310.831 310.831 330.955 310.831 355.78C310.831 330.955 330.955 310.831 355.779 310.831C330.955 310.831 310.831 290.707 310.831 265.883Z" fill="black"/>
<path fill-rule="evenodd" clip-rule="evenodd" d="M44.9484 177.255C44.9484 202.08 24.8243 222.204 0 222.204C24.8243 222.204 44.9484 242.328 44.9484 267.152C44.9484 242.328 65.0725 222.204 89.8969 222.204C65.0725 222.204 44.9484 202.08 44.9484 177.255Z" fill="black"/>
<path fill-rule="evenodd" clip-rule="evenodd" d="M133.574 265.883C133.574 290.707 113.45 310.831 88.626 310.831C113.45 310.831 133.574 330.955 133.574 355.78C133.574 330.955 153.699 310.831 178.523 310.831C153.699 310.831 133.574 290.707 133.574 265.883Z" fill="black"/>
</svg>
